<?xml version="1.0" encoding="UTF-8"?>
<svg xmlns="http://www.w3.org/2000/svg" xmlns:xlink="http://www.w3.org/1999/xlink" width="19pt" height="13pt" viewBox="0 0 19 13" version="1.1">
<g id="surface1">
<rect x="0" y="0" width="19" height="13" style="fill:rgb(69.803922%,13.333333%,20.392157%);fill-opacity:1;stroke:none;"/>
<path style="fill-rule:nonzero;fill:rgb(0%,0%,0%);fill-opacity:1;stroke-width:300;stroke-linecap:butt;stroke-linejoin:miter;stroke:rgb(100%,100%,100%);stroke-opacity:1;stroke-miterlimit:4;" d="M 0 450.00045 L 7409.996332 450.00045 M 7409.996332 1050.00105 L 0 1050.00105 M 0 1650.00165 L 7409.996332 1650.00165 M 7409.996332 2250.00225 L 0 2250.00225 M 0 2850.00285 L 7409.996332 2850.00285 M 7409.996332 3450.00345 L 0 3450.00345 " transform="matrix(0.0025641,0,0,0.00333333,0,0)"/>
<path style=" stroke:none;fill-rule:nonzero;fill:rgb(23.529412%,23.137255%,43.137255%);fill-opacity:1;" d="M 0 0 L 7.601562 0 L 7.601562 7 L 0 7 Z M 0 0 "/>
<path style=" stroke:none;fill-rule:nonzero;fill:rgb(100%,100%,100%);fill-opacity:1;" d="M 0.632812 0.300781 L 0.8125 1.023438 L 0.339844 0.578125 L 0.925781 0.578125 L 0.453125 1.023438 Z M 0.632812 0.300781 "/>
<path style=" stroke:none;fill-rule:nonzero;fill:rgb(100%,100%,100%);fill-opacity:1;" d="M 0.632812 1.699219 L 0.8125 2.421875 L 0.339844 1.976562 L 0.925781 1.976562 L 0.453125 2.421875 Z M 0.632812 1.699219 "/>
<path style=" stroke:none;fill-rule:nonzero;fill:rgb(100%,100%,100%);fill-opacity:1;" d="M 0.632812 3.101562 L 0.8125 3.824219 L 0.339844 3.375 L 0.925781 3.375 L 0.453125 3.824219 Z M 0.632812 3.101562 "/>
<path style=" stroke:none;fill-rule:nonzero;fill:rgb(100%,100%,100%);fill-opacity:1;" d="M 0.632812 4.5 L 0.8125 5.222656 L 0.339844 4.777344 L 0.925781 4.777344 L 0.453125 5.222656 Z M 0.632812 4.5 "/>
<path style=" stroke:none;fill-rule:nonzero;fill:rgb(100%,100%,100%);fill-opacity:1;" d="M 0.632812 5.898438 L 0.8125 6.625 L 0.339844 6.175781 L 0.925781 6.175781 L 0.453125 6.625 Z M 0.632812 5.898438 "/>
<path style=" stroke:none;fill-rule:nonzero;fill:rgb(100%,100%,100%);fill-opacity:1;" d="M 1.265625 1 L 1.445312 1.722656 L 0.972656 1.277344 L 1.558594 1.277344 L 1.085938 1.722656 Z M 1.265625 1 "/>
<path style=" stroke:none;fill-rule:nonzero;fill:rgb(100%,100%,100%);fill-opacity:1;" d="M 1.265625 2.398438 L 1.445312 3.121094 L 0.972656 2.675781 L 1.558594 2.675781 L 1.085938 3.121094 Z M 1.265625 2.398438 "/>
<path style=" stroke:none;fill-rule:nonzero;fill:rgb(100%,100%,100%);fill-opacity:1;" d="M 1.265625 3.800781 L 1.445312 4.523438 L 0.972656 4.078125 L 1.558594 4.078125 L 1.085938 4.523438 Z M 1.265625 3.800781 "/>
<path style=" stroke:none;fill-rule:nonzero;fill:rgb(100%,100%,100%);fill-opacity:1;" d="M 1.265625 5.199219 L 1.445312 5.921875 L 0.972656 5.476562 L 1.558594 5.476562 L 1.085938 5.921875 Z M 1.265625 5.199219 "/>
<path style=" stroke:none;fill-rule:nonzero;fill:rgb(100%,100%,100%);fill-opacity:1;" d="M 1.898438 0.300781 L 2.082031 1.023438 L 1.605469 0.578125 L 2.191406 0.578125 L 1.71875 1.023438 Z M 1.898438 0.300781 "/>
<path style=" stroke:none;fill-rule:nonzero;fill:rgb(100%,100%,100%);fill-opacity:1;" d="M 1.898438 1.699219 L 2.082031 2.421875 L 1.605469 1.976562 L 2.191406 1.976562 L 1.71875 2.421875 Z M 1.898438 1.699219 "/>
<path style=" stroke:none;fill-rule:nonzero;fill:rgb(100%,100%,100%);fill-opacity:1;" d="M 1.898438 3.101562 L 2.082031 3.824219 L 1.605469 3.375 L 2.191406 3.375 L 1.71875 3.824219 Z M 1.898438 3.101562 "/>
<path style=" stroke:none;fill-rule:nonzero;fill:rgb(100%,100%,100%);fill-opacity:1;" d="M 1.898438 4.5 L 2.082031 5.222656 L 1.605469 4.777344 L 2.191406 4.777344 L 1.71875 5.222656 Z M 1.898438 4.5 "/>
<path style=" stroke:none;fill-rule:nonzero;fill:rgb(100%,100%,100%);fill-opacity:1;" d="M 1.898438 5.898438 L 2.082031 6.625 L 1.605469 6.175781 L 2.191406 6.175781 L 1.71875 6.625 Z M 1.898438 5.898438 "/>
<path style=" stroke:none;fill-rule:nonzero;fill:rgb(100%,100%,100%);fill-opacity:1;" d="M 2.535156 1 L 2.714844 1.722656 L 2.238281 1.277344 L 2.828125 1.277344 L 2.351562 1.722656 Z M 2.535156 1 "/>
<path style=" stroke:none;fill-rule:nonzero;fill:rgb(100%,100%,100%);fill-opacity:1;" d="M 2.535156 2.398438 L 2.714844 3.121094 L 2.238281 2.675781 L 2.828125 2.675781 L 2.351562 3.121094 Z M 2.535156 2.398438 "/>
<path style=" stroke:none;fill-rule:nonzero;fill:rgb(100%,100%,100%);fill-opacity:1;" d="M 2.535156 3.800781 L 2.714844 4.523438 L 2.238281 4.078125 L 2.828125 4.078125 L 2.351562 4.523438 Z M 2.535156 3.800781 "/>
<path style=" stroke:none;fill-rule:nonzero;fill:rgb(100%,100%,100%);fill-opacity:1;" d="M 2.535156 5.199219 L 2.714844 5.921875 L 2.238281 5.476562 L 2.828125 5.476562 L 2.351562 5.921875 Z M 2.535156 5.199219 "/>
<path style=" stroke:none;fill-rule:nonzero;fill:rgb(100%,100%,100%);fill-opacity:1;" d="M 3.167969 0.300781 L 3.347656 1.023438 L 2.875 0.578125 L 3.460938 0.578125 L 2.984375 1.023438 Z M 3.167969 0.300781 "/>
<path style=" stroke:none;fill-rule:nonzero;fill:rgb(100%,100%,100%);fill-opacity:1;" d="M 3.167969 1.699219 L 3.347656 2.421875 L 2.875 1.976562 L 3.460938 1.976562 L 2.984375 2.421875 Z M 3.167969 1.699219 "/>
<path style=" stroke:none;fill-rule:nonzero;fill:rgb(100%,100%,100%);fill-opacity:1;" d="M 3.167969 3.101562 L 3.347656 3.824219 L 2.875 3.375 L 3.460938 3.375 L 2.984375 3.824219 Z M 3.167969 3.101562 "/>
<path style=" stroke:none;fill-rule:nonzero;fill:rgb(100%,100%,100%);fill-opacity:1;" d="M 3.167969 4.5 L 3.347656 5.222656 L 2.875 4.777344 L 3.460938 4.777344 L 2.984375 5.222656 Z M 3.167969 4.5 "/>
<path style=" stroke:none;fill-rule:nonzero;fill:rgb(100%,100%,100%);fill-opacity:1;" d="M 3.167969 5.898438 L 3.347656 6.625 L 2.875 6.175781 L 3.460938 6.175781 L 2.984375 6.625 Z M 3.167969 5.898438 "/>
<path style=" stroke:none;fill-rule:nonzero;fill:rgb(100%,100%,100%);fill-opacity:1;" d="M 3.800781 1 L 3.980469 1.722656 L 3.507812 1.277344 L 4.09375 1.277344 L 3.621094 1.722656 Z M 3.800781 1 "/>
<path style=" stroke:none;fill-rule:nonzero;fill:rgb(100%,100%,100%);fill-opacity:1;" d="M 3.800781 2.398438 L 3.980469 3.121094 L 3.507812 2.675781 L 4.09375 2.675781 L 3.621094 3.121094 Z M 3.800781 2.398438 "/>
<path style=" stroke:none;fill-rule:nonzero;fill:rgb(100%,100%,100%);fill-opacity:1;" d="M 3.800781 3.800781 L 3.980469 4.523438 L 3.507812 4.078125 L 4.09375 4.078125 L 3.621094 4.523438 Z M 3.800781 3.800781 "/>
<path style=" stroke:none;fill-rule:nonzero;fill:rgb(100%,100%,100%);fill-opacity:1;" d="M 3.800781 5.199219 L 3.980469 5.921875 L 3.507812 5.476562 L 4.09375 5.476562 L 3.621094 5.921875 Z M 3.800781 5.199219 "/>
<path style=" stroke:none;fill-rule:nonzero;fill:rgb(100%,100%,100%);fill-opacity:1;" d="M 4.433594 0.300781 L 4.613281 1.023438 L 4.140625 0.578125 L 4.726562 0.578125 L 4.253906 1.023438 Z M 4.433594 0.300781 "/>
<path style=" stroke:none;fill-rule:nonzero;fill:rgb(100%,100%,100%);fill-opacity:1;" d="M 4.433594 1.699219 L 4.613281 2.421875 L 4.140625 1.976562 L 4.726562 1.976562 L 4.253906 2.421875 Z M 4.433594 1.699219 "/>
<path style=" stroke:none;fill-rule:nonzero;fill:rgb(100%,100%,100%);fill-opacity:1;" d="M 4.433594 3.101562 L 4.613281 3.824219 L 4.140625 3.375 L 4.726562 3.375 L 4.253906 3.824219 Z M 4.433594 3.101562 "/>
<path style=" stroke:none;fill-rule:nonzero;fill:rgb(100%,100%,100%);fill-opacity:1;" d="M 4.433594 4.5 L 4.613281 5.222656 L 4.140625 4.777344 L 4.726562 4.777344 L 4.253906 5.222656 Z M 4.433594 4.5 "/>
<path style=" stroke:none;fill-rule:nonzero;fill:rgb(100%,100%,100%);fill-opacity:1;" d="M 4.433594 5.898438 L 4.613281 6.625 L 4.140625 6.175781 L 4.726562 6.175781 L 4.253906 6.625 Z M 4.433594 5.898438 "/>
<path style=" stroke:none;fill-rule:nonzero;fill:rgb(100%,100%,100%);fill-opacity:1;" d="M 5.066406 1 L 5.246094 1.722656 L 4.773438 1.277344 L 5.359375 1.277344 L 4.886719 1.722656 Z M 5.066406 1 "/>
<path style=" stroke:none;fill-rule:nonzero;fill:rgb(100%,100%,100%);fill-opacity:1;" d="M 5.066406 2.398438 L 5.246094 3.121094 L 4.773438 2.675781 L 5.359375 2.675781 L 4.886719 3.121094 Z M 5.066406 2.398438 "/>
<path style=" stroke:none;fill-rule:nonzero;fill:rgb(100%,100%,100%);fill-opacity:1;" d="M 5.066406 3.800781 L 5.246094 4.523438 L 4.773438 4.078125 L 5.359375 4.078125 L 4.886719 4.523438 Z M 5.066406 3.800781 "/>
<path style=" stroke:none;fill-rule:nonzero;fill:rgb(100%,100%,100%);fill-opacity:1;" d="M 5.066406 5.199219 L 5.246094 5.921875 L 4.773438 5.476562 L 5.359375 5.476562 L 4.886719 5.921875 Z M 5.066406 5.199219 "/>
<path style=" stroke:none;fill-rule:nonzero;fill:rgb(100%,100%,100%);fill-opacity:1;" d="M 5.699219 0.300781 L 5.878906 1.023438 L 5.40625 0.578125 L 5.992188 0.578125 L 5.519531 1.023438 Z M 5.699219 0.300781 "/>
<path style=" stroke:none;fill-rule:nonzero;fill:rgb(100%,100%,100%);fill-opacity:1;" d="M 5.699219 1.699219 L 5.878906 2.421875 L 5.40625 1.976562 L 5.992188 1.976562 L 5.519531 2.421875 Z M 5.699219 1.699219 "/>
<path style=" stroke:none;fill-rule:nonzero;fill:rgb(100%,100%,100%);fill-opacity:1;" d="M 5.699219 3.101562 L 5.878906 3.824219 L 5.40625 3.375 L 5.992188 3.375 L 5.519531 3.824219 Z M 5.699219 3.101562 "/>
<path style=" stroke:none;fill-rule:nonzero;fill:rgb(100%,100%,100%);fill-opacity:1;" d="M 5.699219 4.5 L 5.878906 5.222656 L 5.40625 4.777344 L 5.992188 4.777344 L 5.519531 5.222656 Z M 5.699219 4.5 "/>
<path style=" stroke:none;fill-rule:nonzero;fill:rgb(100%,100%,100%);fill-opacity:1;" d="M 5.699219 5.898438 L 5.878906 6.625 L 5.40625 6.175781 L 5.992188 6.175781 L 5.519531 6.625 Z M 5.699219 5.898438 "/>
<path style=" stroke:none;fill-rule:nonzero;fill:rgb(100%,100%,100%);fill-opacity:1;" d="M 6.332031 1 L 6.515625 1.722656 L 6.039062 1.277344 L 6.625 1.277344 L 6.152344 1.722656 Z M 6.332031 1 "/>
<path style=" stroke:none;fill-rule:nonzero;fill:rgb(100%,100%,100%);fill-opacity:1;" d="M 6.332031 2.398438 L 6.515625 3.121094 L 6.039062 2.675781 L 6.625 2.675781 L 6.152344 3.121094 Z M 6.332031 2.398438 "/>
<path style=" stroke:none;fill-rule:nonzero;fill:rgb(100%,100%,100%);fill-opacity:1;" d="M 6.332031 3.800781 L 6.515625 4.523438 L 6.039062 4.078125 L 6.625 4.078125 L 6.152344 4.523438 Z M 6.332031 3.800781 "/>
<path style=" stroke:none;fill-rule:nonzero;fill:rgb(100%,100%,100%);fill-opacity:1;" d="M 6.332031 5.199219 L 6.515625 5.921875 L 6.039062 5.476562 L 6.625 5.476562 L 6.152344 5.921875 Z M 6.332031 5.199219 "/>
<path style=" stroke:none;fill-rule:nonzero;fill:rgb(100%,100%,100%);fill-opacity:1;" d="M 6.964844 0.300781 L 7.148438 1.023438 L 6.671875 0.578125 L 7.261719 0.578125 L 6.785156 1.023438 Z M 6.964844 0.300781 "/>
<path style=" stroke:none;fill-rule:nonzero;fill:rgb(100%,100%,100%);fill-opacity:1;" d="M 6.964844 1.699219 L 7.148438 2.421875 L 6.671875 1.976562 L 7.261719 1.976562 L 6.785156 2.421875 Z M 6.964844 1.699219 "/>
<path style=" stroke:none;fill-rule:nonzero;fill:rgb(100%,100%,100%);fill-opacity:1;" d="M 6.964844 3.101562 L 7.148438 3.824219 L 6.671875 3.375 L 7.261719 3.375 L 6.785156 3.824219 Z M 6.964844 3.101562 "/>
<path style=" stroke:none;fill-rule:nonzero;fill:rgb(100%,100%,100%);fill-opacity:1;" d="M 6.964844 4.5 L 7.148438 5.222656 L 6.671875 4.777344 L 7.261719 4.777344 L 6.785156 5.222656 Z M 6.964844 4.5 "/>
<path style=" stroke:none;fill-rule:nonzero;fill:rgb(100%,100%,100%);fill-opacity:1;" d="M 6.964844 5.898438 L 7.148438 6.625 L 6.671875 6.175781 L 7.261719 6.175781 L 6.785156 6.625 Z M 6.964844 5.898438 "/>
</g>
</svg>
